<svg xmlns="http://www.w3.org/2000/svg" viewBox="0 0 64 64" role="img" aria-label="Couch Hold'em">
  <defs>
    <linearGradient id="night-sky" x1="32" y1="0" x2="32" y2="64" gradientUnits="userSpaceOnUse">
      <stop offset="0%" stop-color="#1a2f4f" />
      <stop offset="52%" stop-color="#101c31" />
      <stop offset="100%" stop-color="#0a101c" />
    </linearGradient>
    <radialGradient id="city-glow" cx="32" cy="10" r="34" gradientUnits="userSpaceOnUse">
      <stop offset="0%" stop-color="#5eb8f0" stop-opacity="0.28" />
      <stop offset="100%" stop-color="#5eb8f0" stop-opacity="0" />
    </radialGradient>
    <radialGradient id="felt" cx="32" cy="36" rx="22" ry="13" gradientUnits="userSpaceOnUse">
      <stop offset="0%" stop-color="#3a7ec4" />
      <stop offset="58%" stop-color="#245a8f" />
      <stop offset="100%" stop-color="#173a5f" />
    </radialGradient>
    <linearGradient id="accent" x1="20" y1="14" x2="44" y2="50" gradientUnits="userSpaceOnUse">
      <stop offset="0%" stop-color="#8fe0ff" />
      <stop offset="100%" stop-color="#4eb3f2" />
    </linearGradient>
  </defs>
  <rect width="64" height="64" rx="14" fill="url(#night-sky)" />
  <rect width="64" height="64" rx="14" fill="url(#city-glow)" />
  <ellipse cx="32" cy="36" rx="22" ry="13" fill="url(#felt)" />
  <ellipse
    cx="32"
    cy="36"
    rx="22"
    ry="13"
    fill="none"
    stroke="#6ec4ff"
    stroke-opacity="0.4"
    stroke-width="1.25"
  />
  <path
    fill="url(#accent)"
    d="M32 15c-5.6 6.9-13.4 11.7-13.4 20.3 0 5.1 3.9 9.1 8.9 9.1 2.2 0 4.1-.8 5.6-2.1-.9 3.1-2.6 5.6-5.6 7.1V51h9.2v-1.6c-3-1.5-4.8-4-5.6-7.1 1.5 1.3 3.4 2.1 5.6 2.1 5 0 8.9-4 8.9-9.1C45.4 26.7 37.6 21.9 32 15Z"
  />
</svg>
