<svg xmlns="http://www.w3.org/2000/svg" viewBox="0 0 512 512">
  <defs>
    <linearGradient id="bg" x1="64" y1="48" x2="448" y2="464" gradientUnits="userSpaceOnUse">
      <stop stop-color="#081850" />
      <stop offset="1" stop-color="#1f6feb" />
    </linearGradient>
    <radialGradient id="glow" cx="50%" cy="38%" r="58%">
      <stop stop-color="#7cc7ff" stop-opacity="0.38" />
      <stop offset="1" stop-color="#7cc7ff" stop-opacity="0" />
    </radialGradient>
  </defs>
  <rect width="512" height="512" rx="96" fill="url(#bg)" />
  <rect width="512" height="512" rx="96" fill="url(#glow)" />
  <path
    fill="#d9ecff"
    d="M256 64c-58.2 72.3-139.6 122-139.6 210.4 0 52.8 40.3 94.7 92.3 94.7 22.5 0 42.7-7.8 58.2-21.7-8.5 31.8-27.2 57.4-58.9 72.9V440h96v-19.7c-31.8-15.5-50.4-41.1-58.9-72.9 15.5 14 35.7 21.7 58.2 21.7 52 0 92.3-41.9 92.3-94.7C395.6 186 314.2 136.3 256 64Z"
  />
  <path
    fill="#ffffff"
    fill-opacity="0.2"
    d="M256 64c-58.2 72.3-139.6 122-139.6 210.4 0 20.4 6 39 16.4 54.5C143.8 244.1 216.8 196.7 256 128c39.2 68.7 112.2 116.1 123.2 200.9 10.4-15.5 16.4-34.1 16.4-54.5C395.6 186 314.2 136.3 256 64Z"
  />
</svg>
